<svg width="380" height="100" viewBox="0 0 380 100" fill="none" xmlns="http://www.w3.org/2000/svg">
<path d="M140.479 22.8632V36.1208H139.511L134.148 25.3955H115.901V47.8888H127.892L131.393 41.1855H132.435V57.1245H131.393L127.892 50.4212H115.901V71.127L122.604 73.9573V75H102.047V73.9573L107.931 71.0525V26.8107L102.047 23.9059V22.8632H140.479ZM154.56 30.9816C153.071 30.9816 151.805 30.4851 150.762 29.492C149.769 28.4492 149.272 27.1831 149.272 25.6934C149.272 24.2038 149.769 22.9625 150.762 21.9694C151.805 20.9266 153.071 20.4053 154.56 20.4053C156.05 20.4053 157.291 20.9266 158.284 21.9694C159.327 22.9625 159.849 24.2038 159.849 25.6934C159.849 27.1831 159.327 28.4492 158.284 29.492C157.291 30.4851 156.05 30.9816 154.56 30.9816ZM158.433 38.0573V71.4994L163.871 73.8828V75H145.25V73.8828L150.687 71.4994V43.0476L145.25 40.8876V39.7704L157.689 37.3125L158.433 38.0573ZM181.054 18.3943V71.4994L186.491 73.8828V75H167.871V73.8828L173.308 71.4994V23.1611L167.871 21.0011V19.8839L180.309 17.6495L181.054 18.3943ZM210.624 70.6801C215.49 70.6801 219.165 68.4457 221.648 63.9768L222.988 64.6471C221.747 68.2719 219.835 71.0525 217.253 72.989C214.721 74.9255 211.667 75.8938 208.092 75.8938C204.716 75.8938 201.687 75.0993 199.005 73.5104C196.374 71.8718 194.288 69.6125 192.749 66.7326C191.259 63.803 190.514 60.4265 190.514 56.6031C190.514 52.8294 191.284 49.4778 192.823 46.5482C194.412 43.6186 196.523 41.3593 199.154 39.7704C201.836 38.1318 204.74 37.3125 207.869 37.3125C210.997 37.3125 213.703 37.9828 215.987 39.3235C218.321 40.6642 220.083 42.4765 221.275 44.7606C222.517 47.0447 223.137 49.5523 223.137 52.2832H198.409C198.36 52.7301 198.335 53.4253 198.335 54.3687C198.335 57.3976 198.856 60.1534 199.899 62.6361C200.991 65.1188 202.456 67.0802 204.293 68.5201C206.18 69.9601 208.291 70.6801 210.624 70.6801ZM207.869 39.6959C205.634 39.6959 203.673 40.6145 201.985 42.4517C200.346 44.2393 199.254 46.7716 198.707 50.0488H215.987C215.788 46.7716 214.944 44.2393 213.455 42.4517C211.965 40.6145 210.103 39.6959 207.869 39.6959ZM266.385 22.8632V36.1208H265.416L260.054 25.3955H241.806V47.8888H253.797L257.298 41.1855H258.341V57.1245H257.298L253.797 50.4212H241.806V71.127L248.509 73.9573V75H227.952V73.9573L233.836 71.0525V26.8107L227.952 23.9059V22.8632H266.385ZM284.339 18.3943V71.4994L289.776 73.8828V75H271.155V73.8828L276.593 71.4994V23.1611L271.155 21.0011V19.8839L283.594 17.6495L284.339 18.3943ZM313.909 70.6801C318.775 70.6801 322.449 68.4457 324.932 63.9768L326.273 64.6471C325.031 68.2719 323.12 71.0525 320.538 72.989C318.005 74.9255 314.952 75.8938 311.376 75.8938C308 75.8938 304.971 75.0993 302.29 73.5104C299.658 71.8718 297.573 69.6125 296.033 66.7326C294.544 63.803 293.799 60.4265 293.799 56.6031C293.799 52.8294 294.569 49.4778 296.108 46.5482C297.697 43.6186 299.807 41.3593 302.439 39.7704C305.12 38.1318 308.025 37.3125 311.153 37.3125C314.281 37.3125 316.987 37.9828 319.271 39.3235C321.605 40.6642 323.368 42.4765 324.56 44.7606C325.801 47.0447 326.422 49.5523 326.422 52.2832H301.694C301.644 52.7301 301.619 53.4253 301.619 54.3687C301.619 57.3976 302.141 60.1534 303.184 62.6361C304.276 65.1188 305.741 67.0802 307.578 68.5201C309.465 69.9601 311.575 70.6801 313.909 70.6801ZM311.153 39.6959C308.919 39.6959 306.957 40.6145 305.269 42.4517C303.63 44.2393 302.538 46.7716 301.992 50.0488H319.271C319.073 46.7716 318.229 44.2393 316.739 42.4517C315.249 40.6145 313.387 39.6959 311.153 39.6959ZM351.662 54.8901L362.089 71.4994L367.303 73.8828V75H350.396V73.8828L353.524 71.4994L346.001 59.7314L338.33 71.5739L341.905 73.8828V75H329.914V73.8828L335.127 71.4994L344.512 57.4224L334.531 41.7069L329.988 39.3235V38.2063H347.044V39.3235L343.32 41.7069L350.172 52.5812L357.77 41.7069L354.194 39.3235V38.2063H365.441V39.3235L360.674 41.8559L351.662 54.8901Z" fill="#141B34"/>
<path d="M25.5607 44.7402L42.6504 73.804C44.2534 76.5302 45.0549 77.8932 45.9094 78.6398C48.1827 80.6263 51.2795 80.6194 53.5464 78.623C54.3986 77.8725 55.1959 76.5061 56.7904 73.7731L44.6849 53.6435L50.7959 43.0937H38.3405L32.9593 34.1456H55.9793L63.6667 20.875L36.0276 20.8751C25.2611 20.8751 19.8778 20.8751 18.0877 24.9568C16.2976 29.0384 19.3853 34.2724 25.5607 44.7402Z" stroke="#141B34" stroke-width="4.9375" stroke-linecap="round" stroke-linejoin="round"/>
<path d="M82.8732 24.8913C84.8022 29.1161 81.4749 34.5337 74.8198 45.3689L61.6025 66.9583L53.7917 54.4832L74.0608 20.875C78.8775 21.2349 81.6517 22.2161 82.8732 24.8913Z" stroke="#141B34" stroke-width="4.9375" stroke-linecap="round" stroke-linejoin="round"/>
</svg>
